<svg xmlns="http://www.w3.org/2000/svg" width="430.08" height="502.23" viewBox="0 0 430.08 502.23">
  <title>Nour Bride</title>
  <g id="Layer_2" data-name="Layer 2">
    <g id="Layer_1-2" data-name="Layer 1">
      <path d="M173.6,496.86H111.22a132.82,132.82,0,0,1,16.05-63.39Z" fill="#fff"/>
      <path d="M303.39,433.84a132.78,132.78,0,0,1,16.06,63.39H257.07Z" fill="none" stroke="#000" stroke-miterlimit="10" stroke-width="10"/>
      <path d="M173.6,497.17H111.22a132.82,132.82,0,0,1,16.05-63.39Z" fill="none" stroke="#000" stroke-miterlimit="10" stroke-width="10"/>
      <path d="M303.39,433.84s-15.31,29.78-46.32,63.39H174.18c-31-33.61-46.32-63.39-46.32-63.39a127.9,127.9,0,0,1,11.41-17.48c10.81-13.93,20.65-20.91,20.65-20.91H271.33s9.85,7,20.64,20.89a129.59,129.59,0,0,1,11.42,17.5Z" fill="none" stroke="#000405" stroke-miterlimit="10" stroke-width="10"/>
      <circle cx="215.13" cy="213.52" r="210.04" fill="#fff"/>
      <g>
        <path d="M407.93,213.52C407.93,108.8,321.57,23.91,215,23.91S22.15,108.8,22.15,213.52,108.51,403.13,215,403.13s192.92-84.89,192.92-189.61Z" fill="#f9dfd2"/>
        <path d="M321.18,284.18H296.36a7.5,7.5,0,0,1,0-15h24.82a7.5,7.5,0,0,1,0,15Z" fill="#e98e8f"/>
        <path d="M133.72,284.18H108.9a7.5,7.5,0,0,1,0-15h24.82a7.5,7.5,0,0,1,0,15Z" fill="#e98e8f"/>
        <path d="M334.33,216.59c3.09-2.75,3-7.91-.21-11.51L321.57,191c-3.21-3.6-8.32-4.29-11.41-1.53s-3,7.91.21,11.51l12.55,14.09C326.13,218.66,331.23,219.36,334.33,216.59Z"/>
        <path d="M299.09,214.49A7.5,7.5,0,0,0,309.6,213h0l9.78-12.92a7.52,7.52,0,0,0-12-9.05L297.6,204A7.5,7.5,0,0,0,299.09,214.49Z"/>
        <path d="M139.29,215.62c3.09-2.75,3-7.91-.21-11.51L126.53,190c-3.21-3.6-8.32-4.29-11.41-1.53s-3,7.91.21,11.51l12.55,14.09C131.09,217.69,136.2,218.36,139.29,215.62Z"/>
        <path d="M104,213.51a7.5,7.5,0,0,0,10.51-1.45h0l9.78-12.92a7.52,7.52,0,0,0-12-9.05L102.52,203A7.5,7.5,0,0,0,104,213.51Z"/>
      </g>
      <path d="M180.76,294.18h82.5v24.3h-82.5Z" fill="#fff"/>
      <ellipse cx="222.01" cy="318.37" rx="41.25" ry="24.19" fill="#fff"/>
      <path d="M339.61,148.15c0-4.14-4.19-7.52-9.41-7.55l-20.42-.11c-5.22,0-9.47,3.31-9.5,7.45s4.19,7.52,9.41,7.55l20.42.11C335.34,155.62,339.59,152.29,339.61,148.15Z"/>
      <path d="M139.48,148.13c0-4.14-4.69-7.53-10.53-7.56l-22.83-.13c-5.83,0-10.59,3.3-10.61,7.44s4.69,7.53,10.53,7.56l22.83.13C134.71,155.6,139.46,152.27,139.48,148.13Z"/>
      <path d="M234.54,402.17a188.5,188.5,0,0,1-19.5,1c-106.53,0-192.89-84.89-192.89-189.61S108.51,23.9,215,23.9a188.68,188.68,0,0,1,19.5,1C137.17,34.47,61.15,115.27,61.15,213.52S137.17,392.56,234.54,402.17Z" fill="#efb7a3"/>
      <path d="M408.71,213.52c0-104.72-86.36-189.61-192.89-189.61S22.93,108.8,22.93,213.52s86.36,189.61,192.88,189.61,192.9-84.89,192.9-189.61Z" fill="none" stroke="#050200" stroke-miterlimit="10" stroke-width="10"/>
      <circle cx="215.04" cy="215.04" r="210.04" fill="none" stroke="#000405" stroke-miterlimit="10" stroke-width="10"/>
      <path d="M263.26,318.48v-24.3h-82.5v24.3" fill="none" stroke="#000" stroke-miterlimit="10" stroke-width="10"/>
      <path d="M263.26,318.36v.11c-.1,13.3-18.53,24.07-41.25,24.07s-41.15-10.77-41.25-24.07v-.11" fill="none" stroke="#000" stroke-miterlimit="10" stroke-width="10"/>
      <g>
        <circle cx="357.05" cy="68.69" r="27.03" fill="#f5be3c" stroke="#000" stroke-miterlimit="10" stroke-width="5"/>
        <circle cx="357.05" cy="68.69" r="19.31" fill="#d2a53c" stroke="#000" stroke-miterlimit="10" stroke-width="5"/>
        <circle cx="357.05" cy="68.69" r="11.59" fill="#c3bc41" stroke="#000" stroke-miterlimit="10" stroke-width="5"/>
        <g>
          <path d="M357,49.38a1.93,1.93,0,0,1-1.33-.53c-4-3.8-6.39-10.46-6.39-17.81s2.39-14,6.39-17.81a1.93,1.93,0,0,1,2.66,0c4,3.8,6.39,10.46,6.39,17.81s-2.39,14-6.39,17.81A1.93,1.93,0,0,1,357,49.38Z" fill="#ffe650" stroke="#000" stroke-miterlimit="10" stroke-width="5"/>
          <path d="M357,124.69a1.93,1.93,0,0,1-1.33-.53c-4-3.8-6.39-10.46-6.39-17.81s2.39-14,6.39-17.81a1.93,1.93,0,0,1,2.66,0c4,3.8,6.39,10.46,6.39,17.81s-2.39,14-6.39,17.81A1.93,1.93,0,0,1,357,124.69Z" fill="#ffe650" stroke="#000" stroke-miterlimit="10" stroke-width="5"/>
          <path d="M319.39,76.41c-7.36,0-14-2.39-17.81-6.39a1.93,1.93,0,0,1,0-2.66c3.8-4,10.46-6.39,17.81-6.39s14,2.39,17.81,6.39a1.93,1.93,0,0,1,0,2.66C333.41,74,326.75,76.41,319.39,76.41Z" fill="#ffe650" stroke="#000" stroke-miterlimit="10" stroke-width="5"/>
          <path d="M394.7,76.41c-7.36,0-14-2.39-17.81-6.39a1.93,1.93,0,0,1,0-2.66c3.8-4,10.46-6.39,17.81-6.39s14,2.39,17.81,6.39a1.93,1.93,0,0,1,0,2.66C408.72,74,402.06,76.41,394.7,76.41Z" fill="#ffe650" stroke="#000" stroke-miterlimit="10" stroke-width="5"/>
          <path d="M341.69,55.61c-5.43,0-11.65-3-16.73-8.08s-8.22-11.6-8.08-17.12a1.93,1.93,0,0,1,1.88-1.88c5.53-.15,11.92,2.87,17.12,8.07S344.1,48.2,344,53.72a1.93,1.93,0,0,1-1.88,1.88Z" fill="#ffe650" stroke="#000" stroke-miterlimit="10" stroke-width="5"/>
          <path d="M394.94,108.86c-5.43,0-11.65-3-16.73-8.08s-8.22-11.6-8.07-17.12A1.93,1.93,0,0,1,372,81.78c5.48-.16,11.92,2.87,17.12,8.07s8.22,11.6,8.07,17.12a1.93,1.93,0,0,1-1.88,1.88Z" fill="#ffe650" stroke="#000" stroke-miterlimit="10" stroke-width="5"/>
          <path d="M319.15,108.86h-.38a1.93,1.93,0,0,1-1.88-1.88c-.15-5.52,2.87-11.92,8.07-17.12s11.6-8.23,17.12-8.07A1.93,1.93,0,0,1,344,83.66c.15,5.52-2.87,11.92-8.07,17.12S324.58,108.86,319.15,108.86Z" fill="#ffe650" stroke="#000" stroke-miterlimit="10" stroke-width="5"/>
          <path d="M372.4,55.61H372a1.93,1.93,0,0,1-1.88-1.88C370,48.21,373,41.81,378.21,36.6s11.59-8.25,17.12-8.07a1.93,1.93,0,0,1,1.88,1.88c.15,5.52-2.87,11.92-8.07,17.12S377.83,55.61,372.4,55.61Z" fill="#ffe650" stroke="#000" stroke-miterlimit="10" stroke-width="5"/>
        </g>
        <g>
          <path d="M348.92,51a1.91,1.91,0,0,1-.69-.13c-5.15-2-9.91-7.22-12.73-14S332.34,23,334.59,18a1.92,1.92,0,0,1,2.46-1c5.15,2,9.91,7.22,12.73,14s3.16,13.86.91,18.91A1.93,1.93,0,0,1,348.92,51Z" fill="#ffd741" stroke="#000" stroke-miterlimit="10" stroke-width="5"/>
          <path d="M377.74,120.57a1.91,1.91,0,0,1-.69-.13c-5.15-2-9.91-7.22-12.73-14s-3.16-13.86-.91-18.91a1.92,1.92,0,0,1,2.46-1c5.15,2,9.91,7.22,12.73,14s3.16,13.86.91,18.91A1.93,1.93,0,0,1,377.74,120.57Z" fill="#ffd741" stroke="#000" stroke-miterlimit="10" stroke-width="5"/>
          <path d="M313.91,92.62a18.73,18.73,0,0,1-7.6-1.47,1.93,1.93,0,0,1-1-2.46c2-5.15,7.22-9.91,14-12.73s13.86-3.15,18.91-.91a1.93,1.93,0,0,1,1,2.46c-2,5.15-7.22,9.91-14,12.73A29.91,29.91,0,0,1,313.91,92.62Z" fill="#ffd741" stroke="#000" stroke-miterlimit="10" stroke-width="5"/>
          <path d="M383.49,63.8a18.73,18.73,0,0,1-7.6-1.47,1.93,1.93,0,0,1-1-2.46c2-5.15,7.22-9.91,14-12.73s13.86-3.16,18.91-.91a1.93,1.93,0,0,1,1,2.46c-2,5.15-7.22,9.91-14,12.73A29.91,29.91,0,0,1,383.49,63.8Z" fill="#ffd741" stroke="#000" stroke-miterlimit="10" stroke-width="5"/>
          <path d="M330.6,63.8a29.91,29.91,0,0,1-11.3-2.38c-6.8-2.81-12-7.57-14-12.73a1.93,1.93,0,0,1,1-2.46c5-2.25,12.11-1.9,18.91.91s12,7.57,14,12.73a1.93,1.93,0,0,1-1,2.46A18.73,18.73,0,0,1,330.6,63.8Z" fill="#ffd741" stroke="#000" stroke-miterlimit="10" stroke-width="5"/>
          <path d="M400.18,92.62a29.91,29.91,0,0,1-11.3-2.38c-6.8-2.81-12-7.57-14-12.73a1.93,1.93,0,0,1,1-2.46c5-2.25,12.11-1.9,18.91.91s12,7.57,14,12.73a1.93,1.93,0,0,1-1,2.46A18.74,18.74,0,0,1,400.18,92.62Z" fill="#ffd741" stroke="#000" stroke-miterlimit="10" stroke-width="5"/>
          <path d="M336.35,120.57a1.93,1.93,0,0,1-1.77-1.15c-2.25-5-1.91-12.11.91-18.91s7.57-12,12.73-14a1.93,1.93,0,0,1,2.46,1c2.25,5,1.91,12.11-.91,18.91s-7.57,12-12.73,14A1.94,1.94,0,0,1,336.35,120.57Z" fill="#ffd741" stroke="#000" stroke-miterlimit="10" stroke-width="5"/>
          <path d="M365.17,51a1.93,1.93,0,0,1-1.77-1.15c-2.25-5-1.91-12.11.91-18.91s7.57-12,12.73-14a1.93,1.93,0,0,1,2.46,1c2.25,5,1.91,12.11-.91,18.91s-7.57,12-12.73,14A1.94,1.94,0,0,1,365.17,51Z" fill="#ffd741" stroke="#000" stroke-miterlimit="10" stroke-width="5"/>
        </g>
        <circle cx="357.05" cy="68.69" r="7.72" fill="#b4d246" stroke="#000" stroke-miterlimit="10" stroke-width="5"/>
      </g>
    </g>
  </g>
</svg>
